ISO-10303-21;
HEADER;
/* Generated by software containing ST-Developer
 * from STEP Tools, Inc. (www.steptools.com) 
 */

FILE_DESCRIPTION(
/* description */ (''),
/* implementation_level */ '2;1');

FILE_NAME(
/* name */ 'FIN_DE_CARRERA.stp',
/* time_stamp */ '2024-08-22T11:33:32-05:00',
/* author */ ('Niler'),
/* organization */ (''),
/* preprocessor_version */ 'ST-DEVELOPER v20',
/* originating_system */ 'Autodesk Inventor 2024',
/* authorisation */ '');

FILE_SCHEMA (('AUTOMOTIVE_DESIGN { 1 0 10303 214 3 1 1 }'));
ENDSEC;

DATA;
#10=MECHANICAL_DESIGN_GEOMETRIC_PRESENTATION_REPRESENTATION('',(#14,#15,
#16,#17,#18,#19,#20,#21,#22,#23,#24,#25,#26),#1400);
#11=SHAPE_REPRESENTATION_RELATIONSHIP('SRR','None',#1407,#12);
#12=ADVANCED_BREP_SHAPE_REPRESENTATION('',(#13),#1399);
#13=MANIFOLD_SOLID_BREP('Solid1',#855);
#14=STYLED_ITEM('',(#1417),#843);
#15=STYLED_ITEM('',(#1417),#844);
#16=STYLED_ITEM('',(#1417),#845);
#17=STYLED_ITEM('',(#1417),#846);
#18=STYLED_ITEM('',(#1417),#847);
#19=STYLED_ITEM('',(#1417),#848);
#20=STYLED_ITEM('',(#1417),#849);
#21=STYLED_ITEM('',(#1417),#850);
#22=STYLED_ITEM('',(#1417),#851);
#23=STYLED_ITEM('',(#1417),#852);
#24=STYLED_ITEM('',(#1417),#853);
#25=STYLED_ITEM('',(#1417),#854);
#26=STYLED_ITEM('',(#1416),#13);
#27=FACE_BOUND('',#129,.T.);
#28=FACE_BOUND('',#133,.T.);
#29=FACE_BOUND('',#136,.T.);
#30=FACE_BOUND('',#140,.T.);
#31=FACE_BOUND('',#150,.T.);
#32=FACE_BOUND('',#152,.T.);
#33=FACE_BOUND('',#153,.T.);
#34=FACE_BOUND('',#156,.T.);
#35=FACE_BOUND('',#157,.T.);
#36=FACE_BOUND('',#160,.T.);
#37=FACE_BOUND('',#164,.T.);
#38=FACE_BOUND('',#165,.T.);
#39=CYLINDRICAL_SURFACE('',#887,2.);
#40=CYLINDRICAL_SURFACE('',#912,1.);
#41=CYLINDRICAL_SURFACE('',#913,1.);
#42=CYLINDRICAL_SURFACE('',#916,1.5);
#43=CYLINDRICAL_SURFACE('',#919,1.5);
#44=CYLINDRICAL_SURFACE('',#922,2.);
#45=CYLINDRICAL_SURFACE('',#930,2.);
#46=CYLINDRICAL_SURFACE('',#933,2.);
#47=CYLINDRICAL_SURFACE('',#936,2.);
#48=CIRCLE('',#886,2.);
#49=CIRCLE('',#888,2.);
#50=CIRCLE('',#899,1.);
#51=CIRCLE('',#903,1.);
#52=CIRCLE('',#906,1.);
#53=CIRCLE('',#910,1.);
#54=CIRCLE('',#917,1.5);
#55=CIRCLE('',#918,1.5);
#56=CIRCLE('',#920,1.5);
#57=CIRCLE('',#921,1.5);
#58=CIRCLE('',#923,2.);
#59=CIRCLE('',#924,2.);
#60=CIRCLE('',#927,2.);
#61=CIRCLE('',#928,2.);
#62=CIRCLE('',#929,2.);
#63=CIRCLE('',#931,2.);
#64=CIRCLE('',#934,2.);
#65=CIRCLE('',#937,2.);
#66=FACE_OUTER_BOUND('',#110,.T.);
#67=FACE_OUTER_BOUND('',#111,.T.);
#68=FACE_OUTER_BOUND('',#112,.T.);
#69=FACE_OUTER_BOUND('',#113,.T.);
#70=FACE_OUTER_BOUND('',#114,.T.);
#71=FACE_OUTER_BOUND('',#115,.T.);
#72=FACE_OUTER_BOUND('',#116,.T.);
#73=FACE_OUTER_BOUND('',#117,.T.);
#74=FACE_OUTER_BOUND('',#118,.T.);
#75=FACE_OUTER_BOUND('',#119,.T.);
#76=FACE_OUTER_BOUND('',#120,.T.);
#77=FACE_OUTER_BOUND('',#121,.T.);
#78=FACE_OUTER_BOUND('',#122,.T.);
#79=FACE_OUTER_BOUND('',#123,.T.);
#80=FACE_OUTER_BOUND('',#124,.T.);
#81=FACE_OUTER_BOUND('',#125,.T.);
#82=FACE_OUTER_BOUND('',#126,.T.);
#83=FACE_OUTER_BOUND('',#127,.T.);
#84=FACE_OUTER_BOUND('',#128,.T.);
#85=FACE_OUTER_BOUND('',#130,.T.);
#86=FACE_OUTER_BOUND('',#131,.T.);
#87=FACE_OUTER_BOUND('',#132,.T.);
#88=FACE_OUTER_BOUND('',#134,.T.);
#89=FACE_OUTER_BOUND('',#135,.T.);
#90=FACE_OUTER_BOUND('',#137,.T.);
#91=FACE_OUTER_BOUND('',#138,.T.);
#92=FACE_OUTER_BOUND('',#139,.T.);
#93=FACE_OUTER_BOUND('',#141,.T.);
#94=FACE_OUTER_BOUND('',#142,.T.);
#95=FACE_OUTER_BOUND('',#143,.T.);
#96=FACE_OUTER_BOUND('',#144,.T.);
#97=FACE_OUTER_BOUND('',#145,.T.);
#98=FACE_OUTER_BOUND('',#146,.T.);
#99=FACE_OUTER_BOUND('',#147,.T.);
#100=FACE_OUTER_BOUND('',#148,.T.);
#101=FACE_OUTER_BOUND('',#149,.T.);
#102=FACE_OUTER_BOUND('',#151,.T.);
#103=FACE_OUTER_BOUND('',#154,.T.);
#104=FACE_OUTER_BOUND('',#155,.T.);
#105=FACE_OUTER_BOUND('',#158,.T.);
#106=FACE_OUTER_BOUND('',#159,.T.);
#107=FACE_OUTER_BOUND('',#161,.T.);
#108=FACE_OUTER_BOUND('',#162,.T.);
#109=FACE_OUTER_BOUND('',#163,.T.);
#110=EDGE_LOOP('',(#548,#549,#550,#551,#552,#553));
#111=EDGE_LOOP('',(#554,#555,#556,#557));
#112=EDGE_LOOP('',(#558,#559,#560,#561));
#113=EDGE_LOOP('',(#562,#563,#564,#565));
#114=EDGE_LOOP('',(#566,#567,#568,#569));
#115=EDGE_LOOP('',(#570,#571,#572,#573));
#116=EDGE_LOOP('',(#574,#575,#576,#577,#578,#579));
#117=EDGE_LOOP('',(#580,#581,#582,#583,#584,#585,#586,#587));
#118=EDGE_LOOP('',(#588,#589,#590,#591));
#119=EDGE_LOOP('',(#592,#593,#594,#595));
#120=EDGE_LOOP('',(#596,#597,#598,#599));
#121=EDGE_LOOP('',(#600,#601,#602,#603));
#122=EDGE_LOOP('',(#604,#605,#606,#607));
#123=EDGE_LOOP('',(#608,#609,#610,#611));
#124=EDGE_LOOP('',(#612,#613,#614,#615));
#125=EDGE_LOOP('',(#616,#617,#618,#619,#620,#621,#622,#623));
#126=EDGE_LOOP('',(#624,#625,#626,#627));
#127=EDGE_LOOP('',(#628,#629,#630,#631));
#128=EDGE_LOOP('',(#632,#633,#634,#635,#636,#637));
#129=EDGE_LOOP('',(#638));
#130=EDGE_LOOP('',(#639,#640,#641,#642));
#131=EDGE_LOOP('',(#643,#644,#645,#646));
#132=EDGE_LOOP('',(#647,#648,#649,#650,#651,#652));
#133=EDGE_LOOP('',(#653));
#134=EDGE_LOOP('',(#654,#655,#656,#657));
#135=EDGE_LOOP('',(#658,#659,#660,#661,#662,#663));
#136=EDGE_LOOP('',(#664));
#137=EDGE_LOOP('',(#665,#666,#667,#668));
#138=EDGE_LOOP('',(#669,#670,#671,#672));
#139=EDGE_LOOP('',(#673,#674,#675,#676,#677,#678));
#140=EDGE_LOOP('',(#679));
#141=EDGE_LOOP('',(#680,#681,#682,#683));
#142=EDGE_LOOP('',(#684,#685,#686,#687));
#143=EDGE_LOOP('',(#688,#689,#690,#691));
#144=EDGE_LOOP('',(#692,#693,#694,#695));
#145=EDGE_LOOP('',(#696,#697,#698,#699));
#146=EDGE_LOOP('',(#700,#701,#702,#703));
#147=EDGE_LOOP('',(#704,#705,#706,#707));
#148=EDGE_LOOP('',(#708,#709,#710,#711));
#149=EDGE_LOOP('',(#712,#713,#714,#715));
#150=EDGE_LOOP('',(#716,#717,#718,#719));
#151=EDGE_LOOP('',(#720,#721,#722,#723,#724,#725,#726,#727));
#152=EDGE_LOOP('',(#728));
#153=EDGE_LOOP('',(#729));
#154=EDGE_LOOP('',(#730,#731,#732,#733));
#155=EDGE_LOOP('',(#734,#735,#736,#737));
#156=EDGE_LOOP('',(#738,#739,#740,#741));
#157=EDGE_LOOP('',(#742,#743,#744,#745));
#158=EDGE_LOOP('',(#746,#747,#748,#749));
#159=EDGE_LOOP('',(#750,#751,#752,#753));
#160=EDGE_LOOP('',(#754,#755,#756,#757));
#161=EDGE_LOOP('',(#758,#759,#760,#761));
#162=EDGE_LOOP('',(#762,#763,#764,#765));
#163=EDGE_LOOP('',(#766,#767,#768,#769,#770,#771,#772,#773));
#164=EDGE_LOOP('',(#774));
#165=EDGE_LOOP('',(#775));
#166=LINE('',#1166,#262);
#167=LINE('',#1168,#263);
#168=LINE('',#1170,#264);
#169=LINE('',#1172,#265);
#170=LINE('',#1174,#266);
#171=LINE('',#1175,#267);
#172=LINE('',#1178,#268);
#173=LINE('',#1180,#269);
#174=LINE('',#1181,#270);
#175=LINE('',#1184,#271);
#176=LINE('',#1186,#272);
#177=LINE('',#1187,#273);
#178=LINE('',#1190,#274);
#179=LINE('',#1191,#275);
#180=LINE('',#1194,#276);
#181=LINE('',#1195,#277);
#182=LINE('',#1197,#278);
#183=LINE('',#1199,#279);
#184=LINE('',#1203,#280);
#185=LINE('',#1207,#281);
#186=LINE('',#1209,#282);
#187=LINE('',#1211,#283);
#188=LINE('',#1213,#284);
#189=LINE('',#1215,#285);
#190=LINE('',#1216,#286);
#191=LINE('',#1219,#287);
#192=LINE('',#1222,#288);
#193=LINE('',#1225,#289);
#194=LINE('',#1226,#290);
#195=LINE('',#1229,#291);
#196=LINE('',#1230,#292);
#197=LINE('',#1233,#293);
#198=LINE('',#1234,#294);
#199=LINE('',#1237,#295);
#200=LINE('',#1239,#296);
#201=LINE('',#1240,#297);
#202=LINE('',#1243,#298);
#203=LINE('',#1244,#299);
#204=LINE('',#1246,#300);
#205=LINE('',#1248,#301);
#206=LINE('',#1252,#302);
#207=LINE('',#1254,#303);
#208=LINE('',#1256,#304);
#209=LINE('',#1257,#305);
#210=LINE('',#1260,#306);
#211=LINE('',#1262,#307);
#212=LINE('',#1263,#308);
#213=LINE('',#1266,#309);
#214=LINE('',#1268,#310);
#215=LINE('',#1270,#311);
#216=LINE('',#1271,#312);
#217=LINE('',#1277,#313);
#218=LINE('',#1279,#314);
#219=LINE('',#1281,#315);
#220=LINE('',#1282,#316);
#221=LINE('',#1285,#317);
#222=LINE('',#1287,#318);
#223=LINE('',#1288,#319);
#224=LINE('',#1291,#320);
#225=LINE('',#1293,#321);
#226=LINE('',#1295,#322);
#227=LINE('',#1296,#323);
#228=LINE('',#1301,#324);
#229=LINE('',#1302,#325);
#230=LINE('',#1305,#326);
#231=LINE('',#1307,#327);
#232=LINE('',#1308,#328);
#233=LINE('',#1312,#329);
#234=LINE('',#1315,#330);
#235=LINE('',#1316,#331);
#236=LINE('',#1319,#332);
#237=LINE('',#1321,#333);
#238=LINE('',#1322,#334);
#239=LINE('',#1326,#335);
#240=LINE('',#1328,#336);
#241=LINE('',#1330,#337);
#242=LINE('',#1332,#338);
#243=LINE('',#1334,#339);
#244=LINE('',#1339,#340);
#245=LINE('',#1345,#341);
#246=LINE('',#1352,#342);
#247=LINE('',#1355,#343);
#248=LINE('',#1358,#344);
#249=LINE('',#1360,#345);
#250=LINE('',#1361,#346);
#251=LINE('',#1364,#347);
#252=LINE('',#1368,#348);
#253=LINE('',#1372,#349);
#254=LINE('',#1377,#350);
#255=LINE('',#1380,#351);
#256=LINE('',#1381,#352);
#257=LINE('',#1384,#353);
#258=LINE('',#1387,#354);
#259=LINE('',#1390,#355);
#260=LINE('',#1391,#356);
#261=LINE('',#1395,#357);
#262=VECTOR('',#944,10.);
#263=VECTOR('',#945,10.);
#264=VECTOR('',#946,10.);
#265=VECTOR('',#947,10.);
#266=VECTOR('',#948,10.);
#267=VECTOR('',#949,10.);
#268=VECTOR('',#952,10.);
#269=VECTOR('',#953,10.);
#270=VECTOR('',#954,10.);
#271=VECTOR('',#957,10.);
#272=VECTOR('',#958,10.);
#273=VECTOR('',#959,10.);
#274=VECTOR('',#962,10.);
#275=VECTOR('',#963,10.);
#276=VECTOR('',#966,10.);
#277=VECTOR('',#967,10.);
#278=VECTOR('',#970,10.);
#279=VECTOR('',#973,10.);
#280=VECTOR('',#976,10.);
#281=VECTOR('',#979,10.);
#282=VECTOR('',#980,10.);
#283=VECTOR('',#981,10.);
#284=VECTOR('',#982,10.);
#285=VECTOR('',#983,10.);
#286=VECTOR('',#984,10.);
#287=VECTOR('',#987,10.);
#288=VECTOR('',#990,10.);
#289=VECTOR('',#993,10.);
#290=VECTOR('',#994,10.);
#291=VECTOR('',#997,10.);
#292=VECTOR('',#998,10.);
#293=VECTOR('',#1001,10.);
#294=VECTOR('',#1002,10.);
#295=VECTOR('',#1005,10.);
#296=VECTOR('',#1006,10.);
#297=VECTOR('',#1007,10.);
#298=VECTOR('',#1010,10.);
#299=VECTOR('',#1011,10.);
#300=VECTOR('',#1014,10.);
#301=VECTOR('',#1017,10.);
#302=VECTOR('',#1020,10.);
#303=VECTOR('',#1021,10.);
#304=VECTOR('',#1022,10.);
#305=VECTOR('',#1023,10.);
#306=VECTOR('',#1026,10.);
#307=VECTOR('',#1027,10.);
#308=VECTOR('',#1028,10.);
#309=VECTOR('',#1031,10.);
#310=VECTOR('',#1032,10.);
#311=VECTOR('',#1033,10.);
#312=VECTOR('',#1034,10.);
#313=VECTOR('',#1039,10.);
#314=VECTOR('',#1040,10.);
#315=VECTOR('',#1041,10.);
#316=VECTOR('',#1042,10.);
#317=VECTOR('',#1045,10.);
#318=VECTOR('',#1046,10.);
#319=VECTOR('',#1047,10.);
#320=VECTOR('',#1050,10.);
#321=VECTOR('',#1051,10.);
#322=VECTOR('',#1052,10.);
#323=VECTOR('',#1053,10.);
#324=VECTOR('',#1058,10.);
#325=VECTOR('',#1059,10.);
#326=VECTOR('',#1062,10.);
#327=VECTOR('',#1063,10.);
#328=VECTOR('',#1064,10.);
#329=VECTOR('',#1069,10.);
#330=VECTOR('',#1072,10.);
#331=VECTOR('',#1073,10.);
#332=VECTOR('',#1076,10.);
#333=VECTOR('',#1077,10.);
#334=VECTOR('',#1078,10.);
#335=VECTOR('',#1083,10.);
#336=VECTOR('',#1086,1.);
#337=VECTOR('',#1089,1.);
#338=VECTOR('',#1092,10.);
#339=VECTOR('',#1095,10.);
#340=VECTOR('',#1100,1.5);
#341=VECTOR('',#1107,1.5);
#342=VECTOR('',#1114,10.);
#343=VECTOR('',#1117,10.);
#344=VECTOR('',#1120,10.);
#345=VECTOR('',#1121,10.);
#346=VECTOR('',#1122,10.);
#347=VECTOR('',#1125,10.);
#348=VECTOR('',#1128,10.);
#349=VECTOR('',#1131,10.);
#350=VECTOR('',#1138,10.);
#351=VECTOR('',#1141,10.);
#352=VECTOR('',#1142,10.);
#353=VECTOR('',#1145,10.);
#354=VECTOR('',#1148,10.);
#355=VECTOR('',#1151,10.);
#356=VECTOR('',#1152,10.);
#357=VECTOR('',#1159,10.);
#358=VERTEX_POINT('',#1164);
#359=VERTEX_POINT('',#1165);
#360=VERTEX_POINT('',#1167);
#361=VERTEX_POINT('',#1169);
#362=VERTEX_POINT('',#1171);
#363=VERTEX_POINT('',#1173);
#364=VERTEX_POINT('',#1177);
#365=VERTEX_POINT('',#1179);
#366=VERTEX_POINT('',#1183);
#367=VERTEX_POINT('',#1185);
#368=VERTEX_POINT('',#1189);
#369=VERTEX_POINT('',#1193);
#370=VERTEX_POINT('',#1201);
#371=VERTEX_POINT('',#1202);
#372=VERTEX_POINT('',#1204);
#373=VERTEX_POINT('',#1206);
#374=VERTEX_POINT('',#1208);
#375=VERTEX_POINT('',#1210);
#376=VERTEX_POINT('',#1212);
#377=VERTEX_POINT('',#1214);
#378=VERTEX_POINT('',#1218);
#379=VERTEX_POINT('',#1220);
#380=VERTEX_POINT('',#1224);
#381=VERTEX_POINT('',#1228);
#382=VERTEX_POINT('',#1232);
#383=VERTEX_POINT('',#1236);
#384=VERTEX_POINT('',#1238);
#385=VERTEX_POINT('',#1242);
#386=VERTEX_POINT('',#1250);
#387=VERTEX_POINT('',#1251);
#388=VERTEX_POINT('',#1253);
#389=VERTEX_POINT('',#1255);
#390=VERTEX_POINT('',#1259);
#391=VERTEX_POINT('',#1261);
#392=VERTEX_POINT('',#1265);
#393=VERTEX_POINT('',#1267);
#394=VERTEX_POINT('',#1269);
#395=VERTEX_POINT('',#1272);
#396=VERTEX_POINT('',#1275);
#397=VERTEX_POINT('',#1276);
#398=VERTEX_POINT('',#1278);
#399=VERTEX_POINT('',#1280);
#400=VERTEX_POINT('',#1284);
#401=VERTEX_POINT('',#1286);
#402=VERTEX_POINT('',#1290);
#403=VERTEX_POINT('',#1292);
#404=VERTEX_POINT('',#1294);
#405=VERTEX_POINT('',#1297);
#406=VERTEX_POINT('',#1300);
#407=VERTEX_POINT('',#1304);
#408=VERTEX_POINT('',#1306);
#409=VERTEX_POINT('',#1309);
#410=VERTEX_POINT('',#1314);
#411=VERTEX_POINT('',#1318);
#412=VERTEX_POINT('',#1320);
#413=VERTEX_POINT('',#1323);
#414=VERTEX_POINT('',#1336);
#415=VERTEX_POINT('',#1338);
#416=VERTEX_POINT('',#1342);
#417=VERTEX_POINT('',#1344);
#418=VERTEX_POINT('',#1348);
#419=VERTEX_POINT('',#1349);
#420=VERTEX_POINT('',#1351);
#421=VERTEX_POINT('',#1353);
#422=VERTEX_POINT('',#1357);
#423=VERTEX_POINT('',#1359);
#424=VERTEX_POINT('',#1363);
#425=VERTEX_POINT('',#1365);
#426=VERTEX_POINT('',#1367);
#427=VERTEX_POINT('',#1369);
#428=VERTEX_POINT('',#1371);
#429=VERTEX_POINT('',#1375);
#430=VERTEX_POINT('',#1379);
#431=VERTEX_POINT('',#1383);
#432=VERTEX_POINT('',#1385);
#433=VERTEX_POINT('',#1389);
#434=EDGE_CURVE('',#358,#359,#166,.T.);
#435=EDGE_CURVE('',#359,#360,#167,.T.);
#436=EDGE_CURVE('',#361,#360,#168,.T.);
#437=EDGE_CURVE('',#361,#362,#169,.T.);
#438=EDGE_CURVE('',#362,#363,#170,.T.);
#439=EDGE_CURVE('',#363,#358,#171,.T.);
#440=EDGE_CURVE('',#364,#359,#172,.T.);
#441=EDGE_CURVE('',#365,#364,#173,.T.);
#442=EDGE_CURVE('',#360,#365,#174,.T.);
#443=EDGE_CURVE('',#366,#361,#175,.T.);
#444=EDGE_CURVE('',#367,#366,#176,.T.);
#445=EDGE_CURVE('',#362,#367,#177,.T.);
#446=EDGE_CURVE('',#368,#367,#178,.T.);
#447=EDGE_CURVE('',#363,#368,#179,.T.);
#448=EDGE_CURVE('',#369,#368,#180,.T.);
#449=EDGE_CURVE('',#358,#369,#181,.T.);
#450=EDGE_CURVE('',#364,#369,#182,.T.);
#451=EDGE_CURVE('',#365,#366,#183,.T.);
#452=EDGE_CURVE('',#370,#371,#184,.T.);
#453=EDGE_CURVE('',#371,#372,#48,.T.);
#454=EDGE_CURVE('',#372,#373,#185,.T.);
#455=EDGE_CURVE('',#373,#374,#186,.T.);
#456=EDGE_CURVE('',#374,#375,#187,.T.);
#457=EDGE_CURVE('',#376,#375,#188,.T.);
#458=EDGE_CURVE('',#376,#377,#189,.T.);
#459=EDGE_CURVE('',#377,#370,#190,.T.);
#460=EDGE_CURVE('',#378,#371,#191,.T.);
#461=EDGE_CURVE('',#379,#378,#49,.T.);
#462=EDGE_CURVE('',#372,#379,#192,.T.);
#463=EDGE_CURVE('',#380,#379,#193,.T.);
#464=EDGE_CURVE('',#373,#380,#194,.T.);
#465=EDGE_CURVE('',#381,#380,#195,.T.);
#466=EDGE_CURVE('',#374,#381,#196,.T.);
#467=EDGE_CURVE('',#382,#381,#197,.T.);
#468=EDGE_CURVE('',#375,#382,#198,.T.);
#469=EDGE_CURVE('',#383,#376,#199,.T.);
#470=EDGE_CURVE('',#384,#383,#200,.T.);
#471=EDGE_CURVE('',#377,#384,#201,.T.);
#472=EDGE_CURVE('',#385,#384,#202,.T.);
#473=EDGE_CURVE('',#370,#385,#203,.T.);
#474=EDGE_CURVE('',#378,#385,#204,.T.);
#475=EDGE_CURVE('',#382,#383,#205,.T.);
#476=EDGE_CURVE('',#386,#387,#206,.T.);
#477=EDGE_CURVE('',#387,#388,#207,.T.);
#478=EDGE_CURVE('',#388,#389,#208,.T.);
#479=EDGE_CURVE('',#389,#386,#209,.T.);
#480=EDGE_CURVE('',#387,#390,#210,.T.);
#481=EDGE_CURVE('',#391,#390,#211,.T.);
#482=EDGE_CURVE('',#391,#388,#212,.T.);
#483=EDGE_CURVE('',#392,#386,#213,.T.);
#484=EDGE_CURVE('',#393,#392,#214,.T.);
#485=EDGE_CURVE('',#393,#394,#215,.T.);
#486=EDGE_CURVE('',#390,#394,#216,.T.);
#487=EDGE_CURVE('',#395,#395,#50,.T.);
#488=EDGE_CURVE('',#396,#397,#217,.T.);
#489=EDGE_CURVE('',#397,#398,#218,.T.);
#490=EDGE_CURVE('',#398,#399,#219,.T.);
#491=EDGE_CURVE('',#399,#396,#220,.T.);
#492=EDGE_CURVE('',#397,#400,#221,.T.);
#493=EDGE_CURVE('',#401,#400,#222,.T.);
#494=EDGE_CURVE('',#401,#398,#223,.T.);
#495=EDGE_CURVE('',#402,#396,#224,.T.);
#496=EDGE_CURVE('',#403,#402,#225,.T.);
#497=EDGE_CURVE('',#403,#404,#226,.T.);
#498=EDGE_CURVE('',#400,#404,#227,.T.);
#499=EDGE_CURVE('',#405,#405,#51,.T.);
#500=EDGE_CURVE('',#406,#401,#228,.T.);
#501=EDGE_CURVE('',#404,#406,#229,.T.);
#502=EDGE_CURVE('',#407,#406,#230,.T.);
#503=EDGE_CURVE('',#408,#407,#231,.T.);
#504=EDGE_CURVE('',#408,#399,#232,.T.);
#505=EDGE_CURVE('',#409,#409,#52,.T.);
#506=EDGE_CURVE('',#407,#403,#233,.T.);
#507=EDGE_CURVE('',#410,#391,#234,.T.);
#508=EDGE_CURVE('',#394,#410,#235,.T.);
#509=EDGE_CURVE('',#411,#410,#236,.T.);
#510=EDGE_CURVE('',#412,#411,#237,.T.);
#511=EDGE_CURVE('',#412,#389,#238,.T.);
#512=EDGE_CURVE('',#413,#413,#53,.T.);
#513=EDGE_CURVE('',#411,#393,#239,.T.);
#514=EDGE_CURVE('',#409,#405,#240,.T.);
#515=EDGE_CURVE('',#413,#395,#241,.T.);
#516=EDGE_CURVE('',#392,#412,#242,.T.);
#517=EDGE_CURVE('',#402,#408,#243,.T.);
#518=EDGE_CURVE('',#414,#414,#54,.T.);
#519=EDGE_CURVE('',#414,#415,#244,.T.);
#520=EDGE_CURVE('',#415,#415,#55,.T.);
#521=EDGE_CURVE('',#416,#416,#56,.T.);
#522=EDGE_CURVE('',#416,#417,#245,.T.);
#523=EDGE_CURVE('',#417,#417,#57,.T.);
#524=EDGE_CURVE('',#418,#419,#58,.T.);
#525=EDGE_CURVE('',#419,#420,#246,.T.);
#526=EDGE_CURVE('',#420,#421,#59,.T.);
#527=EDGE_CURVE('',#421,#418,#247,.T.);
#528=EDGE_CURVE('',#422,#421,#248,.T.);
#529=EDGE_CURVE('',#423,#422,#249,.T.);
#530=EDGE_CURVE('',#418,#423,#250,.T.);
#531=EDGE_CURVE('',#420,#424,#251,.T.);
#532=EDGE_CURVE('',#425,#424,#60,.T.);
#533=EDGE_CURVE('',#425,#426,#252,.T.);
#534=EDGE_CURVE('',#427,#426,#61,.T.);
#535=EDGE_CURVE('',#427,#428,#253,.T.);
#536=EDGE_CURVE('',#422,#428,#62,.T.);
#537=EDGE_CURVE('',#429,#423,#63,.T.);
#538=EDGE_CURVE('',#428,#429,#254,.T.);
#539=EDGE_CURVE('',#430,#427,#255,.T.);
#540=EDGE_CURVE('',#429,#430,#256,.T.);
#541=EDGE_CURVE('',#424,#431,#257,.T.);
#542=EDGE_CURVE('',#431,#432,#64,.T.);
#543=EDGE_CURVE('',#432,#425,#258,.T.);
#544=EDGE_CURVE('',#433,#432,#259,.T.);
#545=EDGE_CURVE('',#426,#433,#260,.T.);
#546=EDGE_CURVE('',#433,#430,#65,.T.);
#547=EDGE_CURVE('',#431,#419,#261,.T.);
#548=ORIENTED_EDGE('',*,*,#434,.T.);
#549=ORIENTED_EDGE('',*,*,#435,.T.);
#550=ORIENTED_EDGE('',*,*,#436,.F.);
#551=ORIENTED_EDGE('',*,*,#437,.T.);
#552=ORIENTED_EDGE('',*,*,#438,.T.);
#553=ORIENTED_EDGE('',*,*,#439,.T.);
#554=ORIENTED_EDGE('',*,*,#440,.F.);
#555=ORIENTED_EDGE('',*,*,#441,.F.);
#556=ORIENTED_EDGE('',*,*,#442,.F.);
#557=ORIENTED_EDGE('',*,*,#435,.F.);
#558=ORIENTED_EDGE('',*,*,#443,.F.);
#559=ORIENTED_EDGE('',*,*,#444,.F.);
#560=ORIENTED_EDGE('',*,*,#445,.F.);
#561=ORIENTED_EDGE('',*,*,#437,.F.);
#562=ORIENTED_EDGE('',*,*,#445,.T.);
#563=ORIENTED_EDGE('',*,*,#446,.F.);
#564=ORIENTED_EDGE('',*,*,#447,.F.);
#565=ORIENTED_EDGE('',*,*,#438,.F.);
#566=ORIENTED_EDGE('',*,*,#447,.T.);
#567=ORIENTED_EDGE('',*,*,#448,.F.);
#568=ORIENTED_EDGE('',*,*,#449,.F.);
#569=ORIENTED_EDGE('',*,*,#439,.F.);
#570=ORIENTED_EDGE('',*,*,#449,.T.);
#571=ORIENTED_EDGE('',*,*,#450,.F.);
#572=ORIENTED_EDGE('',*,*,#440,.T.);
#573=ORIENTED_EDGE('',*,*,#434,.F.);
#574=ORIENTED_EDGE('',*,*,#450,.T.);
#575=ORIENTED_EDGE('',*,*,#448,.T.);
#576=ORIENTED_EDGE('',*,*,#446,.T.);
#577=ORIENTED_EDGE('',*,*,#444,.T.);
#578=ORIENTED_EDGE('',*,*,#451,.F.);
#579=ORIENTED_EDGE('',*,*,#441,.T.);
#580=ORIENTED_EDGE('',*,*,#452,.T.);
#581=ORIENTED_EDGE('',*,*,#453,.T.);
#582=ORIENTED_EDGE('',*,*,#454,.T.);
#583=ORIENTED_EDGE('',*,*,#455,.T.);
#584=ORIENTED_EDGE('',*,*,#456,.T.);
#585=ORIENTED_EDGE('',*,*,#457,.F.);
#586=ORIENTED_EDGE('',*,*,#458,.T.);
#587=ORIENTED_EDGE('',*,*,#459,.T.);
#588=ORIENTED_EDGE('',*,*,#460,.F.);
#589=ORIENTED_EDGE('',*,*,#461,.F.);
#590=ORIENTED_EDGE('',*,*,#462,.F.);
#591=ORIENTED_EDGE('',*,*,#453,.F.);
#592=ORIENTED_EDGE('',*,*,#462,.T.);
#593=ORIENTED_EDGE('',*,*,#463,.F.);
#594=ORIENTED_EDGE('',*,*,#464,.F.);
#595=ORIENTED_EDGE('',*,*,#454,.F.);
#596=ORIENTED_EDGE('',*,*,#464,.T.);
#597=ORIENTED_EDGE('',*,*,#465,.F.);
#598=ORIENTED_EDGE('',*,*,#466,.F.);
#599=ORIENTED_EDGE('',*,*,#455,.F.);
#600=ORIENTED_EDGE('',*,*,#466,.T.);
#601=ORIENTED_EDGE('',*,*,#467,.F.);
#602=ORIENTED_EDGE('',*,*,#468,.F.);
#603=ORIENTED_EDGE('',*,*,#456,.F.);
#604=ORIENTED_EDGE('',*,*,#469,.F.);
#605=ORIENTED_EDGE('',*,*,#470,.F.);
#606=ORIENTED_EDGE('',*,*,#471,.F.);
#607=ORIENTED_EDGE('',*,*,#458,.F.);
#608=ORIENTED_EDGE('',*,*,#471,.T.);
#609=ORIENTED_EDGE('',*,*,#472,.F.);
#610=ORIENTED_EDGE('',*,*,#473,.F.);
#611=ORIENTED_EDGE('',*,*,#459,.F.);
#612=ORIENTED_EDGE('',*,*,#473,.T.);
#613=ORIENTED_EDGE('',*,*,#474,.F.);
#614=ORIENTED_EDGE('',*,*,#460,.T.);
#615=ORIENTED_EDGE('',*,*,#452,.F.);
#616=ORIENTED_EDGE('',*,*,#474,.T.);
#617=ORIENTED_EDGE('',*,*,#472,.T.);
#618=ORIENTED_EDGE('',*,*,#470,.T.);
#619=ORIENTED_EDGE('',*,*,#475,.F.);
#620=ORIENTED_EDGE('',*,*,#467,.T.);
#621=ORIENTED_EDGE('',*,*,#465,.T.);
#622=ORIENTED_EDGE('',*,*,#463,.T.);
#623=ORIENTED_EDGE('',*,*,#461,.T.);
#624=ORIENTED_EDGE('',*,*,#476,.T.);
#625=ORIENTED_EDGE('',*,*,#477,.T.);
#626=ORIENTED_EDGE('',*,*,#478,.T.);
#627=ORIENTED_EDGE('',*,*,#479,.T.);
#628=ORIENTED_EDGE('',*,*,#477,.F.);
#629=ORIENTED_EDGE('',*,*,#480,.T.);
#630=ORIENTED_EDGE('',*,*,#481,.F.);
#631=ORIENTED_EDGE('',*,*,#482,.T.);
#632=ORIENTED_EDGE('',*,*,#476,.F.);
#633=ORIENTED_EDGE('',*,*,#483,.F.);
#634=ORIENTED_EDGE('',*,*,#484,.F.);
#635=ORIENTED_EDGE('',*,*,#485,.T.);
#636=ORIENTED_EDGE('',*,*,#486,.F.);
#637=ORIENTED_EDGE('',*,*,#480,.F.);
#638=ORIENTED_EDGE('',*,*,#487,.T.);
#639=ORIENTED_EDGE('',*,*,#488,.T.);
#640=ORIENTED_EDGE('',*,*,#489,.T.);
#641=ORIENTED_EDGE('',*,*,#490,.T.);
#642=ORIENTED_EDGE('',*,*,#491,.T.);
#643=ORIENTED_EDGE('',*,*,#489,.F.);
#644=ORIENTED_EDGE('',*,*,#492,.T.);
#645=ORIENTED_EDGE('',*,*,#493,.F.);
#646=ORIENTED_EDGE('',*,*,#494,.T.);
#647=ORIENTED_EDGE('',*,*,#488,.F.);
#648=ORIENTED_EDGE('',*,*,#495,.F.);
#649=ORIENTED_EDGE('',*,*,#496,.F.);
#650=ORIENTED_EDGE('',*,*,#497,.T.);
#651=ORIENTED_EDGE('',*,*,#498,.F.);
#652=ORIENTED_EDGE('',*,*,#492,.F.);
#653=ORIENTED_EDGE('',*,*,#499,.T.);
#654=ORIENTED_EDGE('',*,*,#500,.T.);
#655=ORIENTED_EDGE('',*,*,#493,.T.);
#656=ORIENTED_EDGE('',*,*,#498,.T.);
#657=ORIENTED_EDGE('',*,*,#501,.T.);
#658=ORIENTED_EDGE('',*,*,#490,.F.);
#659=ORIENTED_EDGE('',*,*,#494,.F.);
#660=ORIENTED_EDGE('',*,*,#500,.F.);
#661=ORIENTED_EDGE('',*,*,#502,.F.);
#662=ORIENTED_EDGE('',*,*,#503,.F.);
#663=ORIENTED_EDGE('',*,*,#504,.T.);
#664=ORIENTED_EDGE('',*,*,#505,.T.);
#665=ORIENTED_EDGE('',*,*,#501,.F.);
#666=ORIENTED_EDGE('',*,*,#497,.F.);
#667=ORIENTED_EDGE('',*,*,#506,.F.);
#668=ORIENTED_EDGE('',*,*,#502,.T.);
#669=ORIENTED_EDGE('',*,*,#507,.T.);
#670=ORIENTED_EDGE('',*,*,#481,.T.);
#671=ORIENTED_EDGE('',*,*,#486,.T.);
#672=ORIENTED_EDGE('',*,*,#508,.T.);
#673=ORIENTED_EDGE('',*,*,#478,.F.);
#674=ORIENTED_EDGE('',*,*,#482,.F.);
#675=ORIENTED_EDGE('',*,*,#507,.F.);
#676=ORIENTED_EDGE('',*,*,#509,.F.);
#677=ORIENTED_EDGE('',*,*,#510,.F.);
#678=ORIENTED_EDGE('',*,*,#511,.T.);
#679=ORIENTED_EDGE('',*,*,#512,.T.);
#680=ORIENTED_EDGE('',*,*,#508,.F.);
#681=ORIENTED_EDGE('',*,*,#485,.F.);
#682=ORIENTED_EDGE('',*,*,#513,.F.);
#683=ORIENTED_EDGE('',*,*,#509,.T.);
#684=ORIENTED_EDGE('',*,*,#505,.F.);
#685=ORIENTED_EDGE('',*,*,#514,.T.);
#686=ORIENTED_EDGE('',*,*,#499,.F.);
#687=ORIENTED_EDGE('',*,*,#514,.F.);
#688=ORIENTED_EDGE('',*,*,#512,.F.);
#689=ORIENTED_EDGE('',*,*,#515,.T.);
#690=ORIENTED_EDGE('',*,*,#487,.F.);
#691=ORIENTED_EDGE('',*,*,#515,.F.);
#692=ORIENTED_EDGE('',*,*,#479,.F.);
#693=ORIENTED_EDGE('',*,*,#511,.F.);
#694=ORIENTED_EDGE('',*,*,#516,.F.);
#695=ORIENTED_EDGE('',*,*,#483,.T.);
#696=ORIENTED_EDGE('',*,*,#491,.F.);
#697=ORIENTED_EDGE('',*,*,#504,.F.);
#698=ORIENTED_EDGE('',*,*,#517,.F.);
#699=ORIENTED_EDGE('',*,*,#495,.T.);
#700=ORIENTED_EDGE('',*,*,#518,.F.);
#701=ORIENTED_EDGE('',*,*,#519,.T.);
#702=ORIENTED_EDGE('',*,*,#520,.F.);
#703=ORIENTED_EDGE('',*,*,#519,.F.);
#704=ORIENTED_EDGE('',*,*,#521,.F.);
#705=ORIENTED_EDGE('',*,*,#522,.T.);
#706=ORIENTED_EDGE('',*,*,#523,.F.);
#707=ORIENTED_EDGE('',*,*,#522,.F.);
#708=ORIENTED_EDGE('',*,*,#524,.T.);
#709=ORIENTED_EDGE('',*,*,#525,.T.);
#710=ORIENTED_EDGE('',*,*,#526,.T.);
#711=ORIENTED_EDGE('',*,*,#527,.T.);
#712=ORIENTED_EDGE('',*,*,#527,.F.);
#713=ORIENTED_EDGE('',*,*,#528,.F.);
#714=ORIENTED_EDGE('',*,*,#529,.F.);
#715=ORIENTED_EDGE('',*,*,#530,.F.);
#716=ORIENTED_EDGE('',*,*,#436,.T.);
#717=ORIENTED_EDGE('',*,*,#442,.T.);
#718=ORIENTED_EDGE('',*,*,#451,.T.);
#719=ORIENTED_EDGE('',*,*,#443,.T.);
#720=ORIENTED_EDGE('',*,*,#526,.F.);
#721=ORIENTED_EDGE('',*,*,#531,.T.);
#722=ORIENTED_EDGE('',*,*,#532,.F.);
#723=ORIENTED_EDGE('',*,*,#533,.T.);
#724=ORIENTED_EDGE('',*,*,#534,.F.);
#725=ORIENTED_EDGE('',*,*,#535,.T.);
#726=ORIENTED_EDGE('',*,*,#536,.F.);
#727=ORIENTED_EDGE('',*,*,#528,.T.);
#728=ORIENTED_EDGE('',*,*,#520,.T.);
#729=ORIENTED_EDGE('',*,*,#523,.T.);
#730=ORIENTED_EDGE('',*,*,#537,.T.);
#731=ORIENTED_EDGE('',*,*,#529,.T.);
#732=ORIENTED_EDGE('',*,*,#536,.T.);
#733=ORIENTED_EDGE('',*,*,#538,.T.);
#734=ORIENTED_EDGE('',*,*,#538,.F.);
#735=ORIENTED_EDGE('',*,*,#535,.F.);
#736=ORIENTED_EDGE('',*,*,#539,.F.);
#737=ORIENTED_EDGE('',*,*,#540,.F.);
#738=ORIENTED_EDGE('',*,*,#513,.T.);
#739=ORIENTED_EDGE('',*,*,#484,.T.);
#740=ORIENTED_EDGE('',*,*,#516,.T.);
#741=ORIENTED_EDGE('',*,*,#510,.T.);
#742=ORIENTED_EDGE('',*,*,#506,.T.);
#743=ORIENTED_EDGE('',*,*,#496,.T.);
#744=ORIENTED_EDGE('',*,*,#517,.T.);
#745=ORIENTED_EDGE('',*,*,#503,.T.);
#746=ORIENTED_EDGE('',*,*,#532,.T.);
#747=ORIENTED_EDGE('',*,*,#541,.T.);
#748=ORIENTED_EDGE('',*,*,#542,.T.);
#749=ORIENTED_EDGE('',*,*,#543,.T.);
#750=ORIENTED_EDGE('',*,*,#543,.F.);
#751=ORIENTED_EDGE('',*,*,#544,.F.);
#752=ORIENTED_EDGE('',*,*,#545,.F.);
#753=ORIENTED_EDGE('',*,*,#533,.F.);
#754=ORIENTED_EDGE('',*,*,#457,.T.);
#755=ORIENTED_EDGE('',*,*,#468,.T.);
#756=ORIENTED_EDGE('',*,*,#475,.T.);
#757=ORIENTED_EDGE('',*,*,#469,.T.);
#758=ORIENTED_EDGE('',*,*,#546,.T.);
#759=ORIENTED_EDGE('',*,*,#539,.T.);
#760=ORIENTED_EDGE('',*,*,#534,.T.);
#761=ORIENTED_EDGE('',*,*,#545,.T.);
#762=ORIENTED_EDGE('',*,*,#525,.F.);
#763=ORIENTED_EDGE('',*,*,#547,.F.);
#764=ORIENTED_EDGE('',*,*,#541,.F.);
#765=ORIENTED_EDGE('',*,*,#531,.F.);
#766=ORIENTED_EDGE('',*,*,#524,.F.);
#767=ORIENTED_EDGE('',*,*,#530,.T.);
#768=ORIENTED_EDGE('',*,*,#537,.F.);
#769=ORIENTED_EDGE('',*,*,#540,.T.);
#770=ORIENTED_EDGE('',*,*,#546,.F.);
#771=ORIENTED_EDGE('',*,*,#544,.T.);
#772=ORIENTED_EDGE('',*,*,#542,.F.);
#773=ORIENTED_EDGE('',*,*,#547,.T.);
#774=ORIENTED_EDGE('',*,*,#518,.T.);
#775=ORIENTED_EDGE('',*,*,#521,.T.);
#776=PLANE('',#878);
#777=PLANE('',#879);
#778=PLANE('',#880);
#779=PLANE('',#881);
#780=PLANE('',#882);
#781=PLANE('',#883);
#782=PLANE('',#884);
#783=PLANE('',#885);
#784=PLANE('',#889);
#785=PLANE('',#890);
#786=PLANE('',#891);
#787=PLANE('',#892);
#788=PLANE('',#893);
#789=PLANE('',#894);
#790=PLANE('',#895);
#791=PLANE('',#896);
#792=PLANE('',#897);
#793=PLANE('',#898);
#794=PLANE('',#900);
#795=PLANE('',#901);
#796=PLANE('',#902);
#797=PLANE('',#904);
#798=PLANE('',#905);
#799=PLANE('',#907);
#800=PLANE('',#908);
#801=PLANE('',#909);
#802=PLANE('',#911);
#803=PLANE('',#914);
#804=PLANE('',#915);
#805=PLANE('',#925);
#806=PLANE('',#926);
#807=PLANE('',#932);
#808=PLANE('',#935);
#809=PLANE('',#938);
#810=PLANE('',#939);
#811=ADVANCED_FACE('',(#66),#776,.T.);
#812=ADVANCED_FACE('',(#67),#777,.T.);
#813=ADVANCED_FACE('',(#68),#778,.T.);
#814=ADVANCED_FACE('',(#69),#779,.T.);
#815=ADVANCED_FACE('',(#70),#780,.T.);
#816=ADVANCED_FACE('',(#71),#781,.T.);
#817=ADVANCED_FACE('',(#72),#782,.T.);
#818=ADVANCED_FACE('',(#73),#783,.F.);
#819=ADVANCED_FACE('',(#74),#39,.T.);
#820=ADVANCED_FACE('',(#75),#784,.T.);
#821=ADVANCED_FACE('',(#76),#785,.T.);
#822=ADVANCED_FACE('',(#77),#786,.T.);
#823=ADVANCED_FACE('',(#78),#787,.T.);
#824=ADVANCED_FACE('',(#79),#788,.T.);
#825=ADVANCED_FACE('',(#80),#789,.T.);
#826=ADVANCED_FACE('',(#81),#790,.T.);
#827=ADVANCED_FACE('',(#82),#791,.T.);
#828=ADVANCED_FACE('',(#83),#792,.T.);
#829=ADVANCED_FACE('',(#84,#27),#793,.T.);
#830=ADVANCED_FACE('',(#85),#794,.T.);
#831=ADVANCED_FACE('',(#86),#795,.T.);
#832=ADVANCED_FACE('',(#87,#28),#796,.T.);
#833=ADVANCED_FACE('',(#88),#797,.T.);
#834=ADVANCED_FACE('',(#89,#29),#798,.T.);
#835=ADVANCED_FACE('',(#90),#799,.T.);
#836=ADVANCED_FACE('',(#91),#800,.T.);
#837=ADVANCED_FACE('',(#92,#30),#801,.T.);
#838=ADVANCED_FACE('',(#93),#802,.T.);
#839=ADVANCED_FACE('',(#94),#40,.F.);
#840=ADVANCED_FACE('',(#95),#41,.F.);
#841=ADVANCED_FACE('',(#96),#803,.T.);
#842=ADVANCED_FACE('',(#97),#804,.T.);
#843=ADVANCED_FACE('',(#98),#42,.F.);
#844=ADVANCED_FACE('',(#99),#43,.F.);
#845=ADVANCED_FACE('',(#100),#44,.T.);
#846=ADVANCED_FACE('',(#101,#31),#805,.T.);
#847=ADVANCED_FACE('',(#102,#32,#33),#806,.T.);
#848=ADVANCED_FACE('',(#103),#45,.T.);
#849=ADVANCED_FACE('',(#104,#34,#35),#807,.T.);
#850=ADVANCED_FACE('',(#105),#46,.T.);
#851=ADVANCED_FACE('',(#106,#36),#808,.T.);
#852=ADVANCED_FACE('',(#107),#47,.T.);
#853=ADVANCED_FACE('',(#108),#809,.T.);
#854=ADVANCED_FACE('',(#109,#37,#38),#810,.T.);
#855=CLOSED_SHELL('',(#811,#812,#813,#814,#815,#816,#817,#818,#819,#820,
#821,#822,#823,#824,#825,#826,#827,#828,#829,#830,#831,#832,#833,#834,#835,
#836,#837,#838,#839,#840,#841,#842,#843,#844,#845,#846,#847,#848,#849,#850,
#851,#852,#853,#854));
#856=DERIVED_UNIT_ELEMENT(#859,1.);
#857=DERIVED_UNIT_ELEMENT(#1402,-3.);
#858=DIMENSIONAL_EXPONENTS(0.,1.,0.,0.,0.,0.,0.);
#859=(
CONVERSION_BASED_UNIT('gram',#861)
MASS_UNIT()
NAMED_UNIT(#858)
);
#860=(
MASS_UNIT()
NAMED_UNIT(*)
SI_UNIT(.KILO.,.GRAM.)
);
#861=MASS_MEASURE_WITH_UNIT(MASS_MEASURE(0.001),#860);
#862=DERIVED_UNIT((#856,#857));
#863=MEASURE_REPRESENTATION_ITEM('density measure',
POSITIVE_RATIO_MEASURE(7.85),#862);
#864=PROPERTY_DEFINITION_REPRESENTATION(#869,#866);
#865=PROPERTY_DEFINITION_REPRESENTATION(#870,#867);
#866=REPRESENTATION('material name',(#868),#1399);
#867=REPRESENTATION('density',(#863),#1399);
#868=DESCRIPTIVE_REPRESENTATION_ITEM('Steel, Mild, Welded',
'Steel, Mild, Welded');
#869=PROPERTY_DEFINITION('material property','material name',#1409);
#870=PROPERTY_DEFINITION('material property','density of part',#1409);
#871=DATE_TIME_ROLE('creation_date');
#872=APPLIED_DATE_AND_TIME_ASSIGNMENT(#873,#871,(#1409));
#873=DATE_AND_TIME(#874,#875);
#874=CALENDAR_DATE(2024,19,7);
#875=LOCAL_TIME(0,0,0.,#876);
#876=COORDINATED_UNIVERSAL_TIME_OFFSET(0,0,.BEHIND.);
#877=AXIS2_PLACEMENT_3D('',#1162,#940,#941);
#878=AXIS2_PLACEMENT_3D('',#1163,#942,#943);
#879=AXIS2_PLACEMENT_3D('',#1176,#950,#951);
#880=AXIS2_PLACEMENT_3D('',#1182,#955,#956);
#881=AXIS2_PLACEMENT_3D('',#1188,#960,#961);
#882=AXIS2_PLACEMENT_3D('',#1192,#964,#965);
#883=AXIS2_PLACEMENT_3D('',#1196,#968,#969);
#884=AXIS2_PLACEMENT_3D('',#1198,#971,#972);
#885=AXIS2_PLACEMENT_3D('',#1200,#974,#975);
#886=AXIS2_PLACEMENT_3D('',#1205,#977,#978);
#887=AXIS2_PLACEMENT_3D('',#1217,#985,#986);
#888=AXIS2_PLACEMENT_3D('',#1221,#988,#989);
#889=AXIS2_PLACEMENT_3D('',#1223,#991,#992);
#890=AXIS2_PLACEMENT_3D('',#1227,#995,#996);
#891=AXIS2_PLACEMENT_3D('',#1231,#999,#1000);
#892=AXIS2_PLACEMENT_3D('',#1235,#1003,#1004);
#893=AXIS2_PLACEMENT_3D('',#1241,#1008,#1009);
#894=AXIS2_PLACEMENT_3D('',#1245,#1012,#1013);
#895=AXIS2_PLACEMENT_3D('',#1247,#1015,#1016);
#896=AXIS2_PLACEMENT_3D('',#1249,#1018,#1019);
#897=AXIS2_PLACEMENT_3D('',#1258,#1024,#1025);
#898=AXIS2_PLACEMENT_3D('',#1264,#1029,#1030);
#899=AXIS2_PLACEMENT_3D('',#1273,#1035,#1036);
#900=AXIS2_PLACEMENT_3D('',#1274,#1037,#1038);
#901=AXIS2_PLACEMENT_3D('',#1283,#1043,#1044);
#902=AXIS2_PLACEMENT_3D('',#1289,#1048,#1049);
#903=AXIS2_PLACEMENT_3D('',#1298,#1054,#1055);
#904=AXIS2_PLACEMENT_3D('',#1299,#1056,#1057);
#905=AXIS2_PLACEMENT_3D('',#1303,#1060,#1061);
#906=AXIS2_PLACEMENT_3D('',#1310,#1065,#1066);
#907=AXIS2_PLACEMENT_3D('',#1311,#1067,#1068);
#908=AXIS2_PLACEMENT_3D('',#1313,#1070,#1071);
#909=AXIS2_PLACEMENT_3D('',#1317,#1074,#1075);
#910=AXIS2_PLACEMENT_3D('',#1324,#1079,#1080);
#911=AXIS2_PLACEMENT_3D('',#1325,#1081,#1082);
#912=AXIS2_PLACEMENT_3D('',#1327,#1084,#1085);
#913=AXIS2_PLACEMENT_3D('',#1329,#1087,#1088);
#914=AXIS2_PLACEMENT_3D('',#1331,#1090,#1091);
#915=AXIS2_PLACEMENT_3D('',#1333,#1093,#1094);
#916=AXIS2_PLACEMENT_3D('',#1335,#1096,#1097);
#917=AXIS2_PLACEMENT_3D('',#1337,#1098,#1099);
#918=AXIS2_PLACEMENT_3D('',#1340,#1101,#1102);
#919=AXIS2_PLACEMENT_3D('',#1341,#1103,#1104);
#920=AXIS2_PLACEMENT_3D('',#1343,#1105,#1106);
#921=AXIS2_PLACEMENT_3D('',#1346,#1108,#1109);
#922=AXIS2_PLACEMENT_3D('',#1347,#1110,#1111);
#923=AXIS2_PLACEMENT_3D('',#1350,#1112,#1113);
#924=AXIS2_PLACEMENT_3D('',#1354,#1115,#1116);
#925=AXIS2_PLACEMENT_3D('',#1356,#1118,#1119);
#926=AXIS2_PLACEMENT_3D('',#1362,#1123,#1124);
#927=AXIS2_PLACEMENT_3D('',#1366,#1126,#1127);
#928=AXIS2_PLACEMENT_3D('',#1370,#1129,#1130);
#929=AXIS2_PLACEMENT_3D('',#1373,#1132,#1133);
#930=AXIS2_PLACEMENT_3D('',#1374,#1134,#1135);
#931=AXIS2_PLACEMENT_3D('',#1376,#1136,#1137);
#932=AXIS2_PLACEMENT_3D('',#1378,#1139,#1140);
#933=AXIS2_PLACEMENT_3D('',#1382,#1143,#1144);
#934=AXIS2_PLACEMENT_3D('',#1386,#1146,#1147);
#935=AXIS2_PLACEMENT_3D('',#1388,#1149,#1150);
#936=AXIS2_PLACEMENT_3D('',#1392,#1153,#1154);
#937=AXIS2_PLACEMENT_3D('',#1393,#1155,#1156);
#938=AXIS2_PLACEMENT_3D('',#1394,#1157,#1158);
#939=AXIS2_PLACEMENT_3D('',#1396,#1160,#1161);
#940=DIRECTION('axis',(0.,0.,1.));
#941=DIRECTION('refdir',(1.,0.,0.));
#942=DIRECTION('center_axis',(0.,-1.,0.));
#943=DIRECTION('ref_axis',(0.,0.,-1.));
#944=DIRECTION('',(0.,0.,-1.));
#945=DIRECTION('',(1.,0.,0.));
#946=DIRECTION('',(0.,0.,-1.));
#947=DIRECTION('',(-1.,0.,6.93889390390723E-17));
#948=DIRECTION('',(0.,0.,1.));
#949=DIRECTION('',(-1.,0.,0.));
#950=DIRECTION('center_axis',(0.,0.,-1.));
#951=DIRECTION('ref_axis',(-1.,0.,0.));
#952=DIRECTION('',(0.,-1.,0.));
#953=DIRECTION('',(-1.,0.,0.));
#954=DIRECTION('',(0.,1.,0.));
#955=DIRECTION('center_axis',(6.93889390390723E-17,0.,1.));
#956=DIRECTION('ref_axis',(1.,0.,-6.93889390390723E-17));
#957=DIRECTION('',(0.,-1.,0.));
#958=DIRECTION('',(1.,0.,-6.93889390390723E-17));
#959=DIRECTION('',(0.,1.,0.));
#960=DIRECTION('center_axis',(1.,0.,0.));
#961=DIRECTION('ref_axis',(0.,0.,-1.));
#962=DIRECTION('',(0.,0.,-1.));
#963=DIRECTION('',(0.,1.,0.));
#964=DIRECTION('center_axis',(0.,0.,1.));
#965=DIRECTION('ref_axis',(1.,0.,0.));
#966=DIRECTION('',(1.,0.,0.));
#967=DIRECTION('',(0.,1.,0.));
#968=DIRECTION('center_axis',(-1.,0.,0.));
#969=DIRECTION('ref_axis',(0.,0.,1.));
#970=DIRECTION('',(0.,0.,1.));
#971=DIRECTION('center_axis',(0.,1.,0.));
#972=DIRECTION('ref_axis',(0.,0.,1.));
#973=DIRECTION('',(0.,0.,1.));
#974=DIRECTION('center_axis',(0.,1.,0.));
#975=DIRECTION('ref_axis',(0.,0.,1.));
#976=DIRECTION('',(0.994521895368274,0.,0.10452846326765));
#977=DIRECTION('center_axis',(0.,-1.,0.));
#978=DIRECTION('ref_axis',(-1.,0.,0.));
#979=DIRECTION('',(-0.994521895368274,0.,-0.10452846326765));
#980=DIRECTION('',(-0.104528463267654,0.,0.994521895368273));
#981=DIRECTION('',(-1.,0.,7.40148683083438E-16));
#982=DIRECTION('',(0.,0.,1.));
#983=DIRECTION('',(1.,0.,0.));
#984=DIRECTION('',(0.104528463267653,0.,-0.994521895368273));
#985=DIRECTION('center_axis',(0.,1.,0.));
#986=DIRECTION('ref_axis',(0.994521895368274,0.,0.104528463267649));
#987=DIRECTION('',(0.,-1.,0.));
#988=DIRECTION('center_axis',(0.,1.,0.));
#989=DIRECTION('ref_axis',(-1.,0.,0.));
#990=DIRECTION('',(0.,1.,0.));
#991=DIRECTION('center_axis',(-0.10452846326765,0.,0.994521895368274));
#992=DIRECTION('ref_axis',(0.994521895368274,0.,0.10452846326765));
#993=DIRECTION('',(0.994521895368274,0.,0.10452846326765));
#994=DIRECTION('',(0.,1.,0.));
#995=DIRECTION('center_axis',(0.994521895368273,0.,0.104528463267654));
#996=DIRECTION('ref_axis',(0.104528463267654,0.,-0.994521895368273));
#997=DIRECTION('',(0.104528463267654,0.,-0.994521895368273));
#998=DIRECTION('',(0.,1.,0.));
#999=DIRECTION('center_axis',(7.40148683083438E-16,0.,1.));
#1000=DIRECTION('ref_axis',(1.,0.,-7.40148683083438E-16));
#1001=DIRECTION('',(1.,0.,-7.40148683083438E-16));
#1002=DIRECTION('',(0.,1.,0.));
#1003=DIRECTION('center_axis',(0.,0.,-1.));
#1004=DIRECTION('ref_axis',(-1.,0.,0.));
#1005=DIRECTION('',(0.,-1.,0.));
#1006=DIRECTION('',(-1.,0.,0.));
#1007=DIRECTION('',(0.,1.,0.));
#1008=DIRECTION('center_axis',(-0.994521895368273,0.,-0.104528463267653));
#1009=DIRECTION('ref_axis',(-0.104528463267653,0.,0.994521895368273));
#1010=DIRECTION('',(-0.104528463267653,0.,0.994521895368273));
#1011=DIRECTION('',(0.,1.,0.));
#1012=DIRECTION('center_axis',(0.10452846326765,0.,-0.994521895368274));
#1013=DIRECTION('ref_axis',(-0.994521895368274,0.,-0.10452846326765));
#1014=DIRECTION('',(-0.994521895368274,0.,-0.10452846326765));
#1015=DIRECTION('center_axis',(0.,1.,0.));
#1016=DIRECTION('ref_axis',(0.,0.,1.));
#1017=DIRECTION('',(0.,0.,-1.));
#1018=DIRECTION('center_axis',(0.,-0.707106781186548,0.707106781186547));
#1019=DIRECTION('ref_axis',(1.,0.,0.));
#1020=DIRECTION('',(-3.92523114670944E-17,0.707106781186547,0.707106781186548));
#1021=DIRECTION('',(-1.,0.,0.));
#1022=DIRECTION('',(1.57009245868377E-16,-0.707106781186547,-0.707106781186548));
#1023=DIRECTION('',(1.,0.,0.));
#1024=DIRECTION('center_axis',(0.,0.,1.));
#1025=DIRECTION('ref_axis',(1.,0.,0.));
#1026=DIRECTION('',(-5.55111512312578E-17,1.,0.));
#1027=DIRECTION('',(1.,0.,0.));
#1028=DIRECTION('',(2.22044604925031E-16,-1.,0.));
#1029=DIRECTION('center_axis',(1.,5.55111512312578E-17,0.));
#1030=DIRECTION('ref_axis',(-5.55111512312578E-17,1.,0.));
#1031=DIRECTION('',(0.,0.,1.));
#1032=DIRECTION('',(5.55111512312578E-17,-1.,0.));
#1033=DIRECTION('',(0.,0.,1.));
#1034=DIRECTION('',(-3.92523114670944E-17,0.707106781186547,-0.707106781186548));
#1035=DIRECTION('center_axis',(-1.,-5.55111512312578E-17,0.));
#1036=DIRECTION('ref_axis',(0.,0.,1.));
#1037=DIRECTION('center_axis',(0.,-0.707106781186548,0.707106781186547));
#1038=DIRECTION('ref_axis',(1.,0.,0.));
#1039=DIRECTION('',(1.57009245868377E-16,0.707106781186547,0.707106781186548));
#1040=DIRECTION('',(-1.,0.,0.));
#1041=DIRECTION('',(-7.85046229341887E-17,-0.707106781186547,-0.707106781186548));
#1042=DIRECTION('',(1.,0.,0.));
#1043=DIRECTION('center_axis',(0.,0.,1.));
#1044=DIRECTION('ref_axis',(1.,0.,0.));
#1045=DIRECTION('',(2.22044604925031E-16,1.,0.));
#1046=DIRECTION('',(1.,0.,0.));
#1047=DIRECTION('',(-1.11022302462516E-16,-1.,0.));
#1048=DIRECTION('center_axis',(1.,-2.22044604925031E-16,0.));
#1049=DIRECTION('ref_axis',(2.22044604925031E-16,1.,0.));
#1050=DIRECTION('',(0.,0.,1.));
#1051=DIRECTION('',(-2.22044604925031E-16,-1.,0.));
#1052=DIRECTION('',(0.,0.,1.));
#1053=DIRECTION('',(1.57009245868377E-16,0.707106781186547,-0.707106781186548));
#1054=DIRECTION('center_axis',(-1.,2.22044604925031E-16,0.));
#1055=DIRECTION('ref_axis',(0.,0.,1.));
#1056=DIRECTION('center_axis',(0.,0.707106781186548,0.707106781186547));
#1057=DIRECTION('ref_axis',(1.,0.,0.));
#1058=DIRECTION('',(-7.85046229341887E-17,-0.707106781186547,0.707106781186548));
#1059=DIRECTION('',(-1.,0.,0.));
#1060=DIRECTION('center_axis',(-1.,1.11022302462516E-16,0.));
#1061=DIRECTION('ref_axis',(-1.11022302462516E-16,-1.,0.));
#1062=DIRECTION('',(0.,0.,1.));
#1063=DIRECTION('',(1.11022302462516E-16,1.,0.));
#1064=DIRECTION('',(0.,0.,1.));
#1065=DIRECTION('center_axis',(1.,-1.11022302462516E-16,0.));
#1066=DIRECTION('ref_axis',(0.,0.,1.));
#1067=DIRECTION('center_axis',(0.,1.,0.));
#1068=DIRECTION('ref_axis',(-1.,0.,0.));
#1069=DIRECTION('',(1.,0.,0.));
#1070=DIRECTION('center_axis',(0.,0.707106781186548,0.707106781186547));
#1071=DIRECTION('ref_axis',(1.,0.,0.));
#1072=DIRECTION('',(1.57009245868377E-16,-0.707106781186547,0.707106781186548));
#1073=DIRECTION('',(-1.,0.,0.));
#1074=DIRECTION('center_axis',(-1.,-2.22044604925031E-16,0.));
#1075=DIRECTION('ref_axis',(2.22044604925031E-16,-1.,0.));
#1076=DIRECTION('',(0.,0.,1.));
#1077=DIRECTION('',(-2.22044604925031E-16,1.,0.));
#1078=DIRECTION('',(0.,0.,1.));
#1079=DIRECTION('center_axis',(1.,2.22044604925031E-16,0.));
#1080=DIRECTION('ref_axis',(0.,0.,1.));
#1081=DIRECTION('center_axis',(0.,1.,0.));
#1082=DIRECTION('ref_axis',(-1.,0.,0.));
#1083=DIRECTION('',(1.,0.,0.));
#1084=DIRECTION('center_axis',(1.,2.22044604925031E-16,0.));
#1085=DIRECTION('ref_axis',(0.,0.,1.));
#1086=DIRECTION('',(1.,2.22044604925031E-16,0.));
#1087=DIRECTION('center_axis',(1.,2.22044604925031E-16,0.));
#1088=DIRECTION('ref_axis',(0.,0.,1.));
#1089=DIRECTION('',(1.,2.22044604925031E-16,0.));
#1090=DIRECTION('center_axis',(0.,-1.,0.));
#1091=DIRECTION('ref_axis',(1.,0.,0.));
#1092=DIRECTION('',(-1.,0.,0.));
#1093=DIRECTION('center_axis',(0.,-1.,0.));
#1094=DIRECTION('ref_axis',(1.,0.,0.));
#1095=DIRECTION('',(-1.,0.,0.));
#1096=DIRECTION('center_axis',(0.,-1.,0.));
#1097=DIRECTION('ref_axis',(1.,0.,0.));
#1098=DIRECTION('center_axis',(0.,-1.,0.));
#1099=DIRECTION('ref_axis',(1.,0.,0.));
#1100=DIRECTION('',(0.,-1.,0.));
#1101=DIRECTION('center_axis',(0.,1.,0.));
#1102=DIRECTION('ref_axis',(1.,0.,0.));
#1103=DIRECTION('center_axis',(0.,-1.,0.));
#1104=DIRECTION('ref_axis',(1.,0.,0.));
#1105=DIRECTION('center_axis',(0.,-1.,0.));
#1106=DIRECTION('ref_axis',(1.,0.,0.));
#1107=DIRECTION('',(0.,-1.,0.));
#1108=DIRECTION('center_axis',(0.,1.,0.));
#1109=DIRECTION('ref_axis',(1.,0.,0.));
#1110=DIRECTION('center_axis',(0.,1.,0.));
#1111=DIRECTION('ref_axis',(-0.707106781186547,0.,-0.707106781186548));
#1112=DIRECTION('center_axis',(0.,-1.,0.));
#1113=DIRECTION('ref_axis',(-0.707106781186547,0.,-0.707106781186548));
#1114=DIRECTION('',(0.,-1.,0.));
#1115=DIRECTION('center_axis',(0.,1.,0.));
#1116=DIRECTION('ref_axis',(-0.707106781186547,0.,-0.707106781186548));
#1117=DIRECTION('',(0.,1.,0.));
#1118=DIRECTION('center_axis',(-1.,0.,0.));
#1119=DIRECTION('ref_axis',(0.,0.,1.));
#1120=DIRECTION('',(0.,0.,-1.));
#1121=DIRECTION('',(0.,-1.,0.));
#1122=DIRECTION('',(0.,0.,1.));
#1123=DIRECTION('center_axis',(0.,-1.,0.));
#1124=DIRECTION('ref_axis',(0.,0.,-1.));
#1125=DIRECTION('',(1.,0.,0.));
#1126=DIRECTION('center_axis',(0.,1.,0.));
#1127=DIRECTION('ref_axis',(0.707106781186547,0.,-0.707106781186548));
#1128=DIRECTION('',(0.,0.,1.));
#1129=DIRECTION('center_axis',(0.,1.,0.));
#1130=DIRECTION('ref_axis',(0.707106781186547,0.,0.707106781186548));
#1131=DIRECTION('',(-1.,0.,0.));
#1132=DIRECTION('center_axis',(0.,1.,0.));
#1133=DIRECTION('ref_axis',(-0.707106781186547,0.,0.707106781186548));
#1134=DIRECTION('center_axis',(0.,1.,0.));
#1135=DIRECTION('ref_axis',(-0.707106781186547,0.,0.707106781186548));
#1136=DIRECTION('center_axis',(0.,-1.,0.));
#1137=DIRECTION('ref_axis',(-0.707106781186547,0.,0.707106781186548));
#1138=DIRECTION('',(0.,1.,0.));
#1139=DIRECTION('center_axis',(0.,0.,1.));
#1140=DIRECTION('ref_axis',(1.,0.,0.));
#1141=DIRECTION('',(0.,-1.,0.));
#1142=DIRECTION('',(1.,0.,0.));
#1143=DIRECTION('center_axis',(0.,-1.,0.));
#1144=DIRECTION('ref_axis',(0.707106781186547,0.,-0.707106781186548));
#1145=DIRECTION('',(0.,1.,0.));
#1146=DIRECTION('center_axis',(0.,-1.,0.));
#1147=DIRECTION('ref_axis',(0.707106781186547,0.,-0.707106781186548));
#1148=DIRECTION('',(0.,-1.,0.));
#1149=DIRECTION('center_axis',(1.,0.,0.));
#1150=DIRECTION('ref_axis',(0.,0.,-1.));
#1151=DIRECTION('',(0.,0.,-1.));
#1152=DIRECTION('',(0.,1.,0.));
#1153=DIRECTION('center_axis',(0.,1.,0.));
#1154=DIRECTION('ref_axis',(0.707106781186547,0.,0.707106781186548));
#1155=DIRECTION('center_axis',(0.,-1.,0.));
#1156=DIRECTION('ref_axis',(0.707106781186547,0.,0.707106781186548));
#1157=DIRECTION('center_axis',(0.,0.,-1.));
#1158=DIRECTION('ref_axis',(-1.,0.,0.));
#1159=DIRECTION('',(-1.,0.,0.));
#1160=DIRECTION('center_axis',(0.,1.,0.));
#1161=DIRECTION('ref_axis',(0.,0.,1.));
#1162=CARTESIAN_POINT('',(0.,0.,0.));
#1163=CARTESIAN_POINT('Origin',(-10.,-3.,5.96341724005459));
#1164=CARTESIAN_POINT('',(-12.,-3.,10.4634172400546));
#1165=CARTESIAN_POINT('',(-12.,-3.,1.46341724005459));
#1166=CARTESIAN_POINT('',(-12.,-3.,1.46341724005459));
#1167=CARTESIAN_POINT('',(-8.,-3.,1.46341724005459));
#1168=CARTESIAN_POINT('',(-8.,-3.,1.46341724005459));
#1169=CARTESIAN_POINT('',(-8.,-3.,2.36341724005459));
#1170=CARTESIAN_POINT('',(-8.,-3.,-4.01829137997271));
#1171=CARTESIAN_POINT('',(-11.1,-3.,2.36341724005459));
#1172=CARTESIAN_POINT('',(-12.,-3.,2.36341724005459));
#1173=CARTESIAN_POINT('',(-11.1,-3.,10.4634172400546));
#1174=CARTESIAN_POINT('',(-11.1,-3.,10.4634172400546));
#1175=CARTESIAN_POINT('',(-12.,-3.,10.4634172400546));
#1176=CARTESIAN_POINT('Origin',(-8.,0.,1.46341724005459));
#1177=CARTESIAN_POINT('',(-12.,3.,1.46341724005459));
#1178=CARTESIAN_POINT('',(-12.,0.,1.46341724005459));
#1179=CARTESIAN_POINT('',(-8.,3.,1.46341724005459));
#1180=CARTESIAN_POINT('',(-8.,3.,1.46341724005459));
#1181=CARTESIAN_POINT('',(-8.,0.,1.46341724005459));
#1182=CARTESIAN_POINT('Origin',(-11.1,0.,2.36341724005459));
#1183=CARTESIAN_POINT('',(-8.,3.,2.36341724005459));
#1184=CARTESIAN_POINT('',(-8.,0.,2.36341724005459));
#1185=CARTESIAN_POINT('',(-11.1,3.,2.36341724005459));
#1186=CARTESIAN_POINT('',(-12.,3.,2.36341724005459));
#1187=CARTESIAN_POINT('',(-11.1,0.,2.36341724005459));
#1188=CARTESIAN_POINT('Origin',(-11.1,0.,10.4634172400546));
#1189=CARTESIAN_POINT('',(-11.1,3.,10.4634172400546));
#1190=CARTESIAN_POINT('',(-11.1,3.,10.4634172400546));
#1191=CARTESIAN_POINT('',(-11.1,0.,10.4634172400546));
#1192=CARTESIAN_POINT('Origin',(-12.,0.,10.4634172400546));
#1193=CARTESIAN_POINT('',(-12.,3.,10.4634172400546));
#1194=CARTESIAN_POINT('',(-12.,3.,10.4634172400546));
#1195=CARTESIAN_POINT('',(-12.,0.,10.4634172400546));
#1196=CARTESIAN_POINT('Origin',(-12.,0.,1.46341724005459));
#1197=CARTESIAN_POINT('',(-12.,3.,1.46341724005459));
#1198=CARTESIAN_POINT('Origin',(-10.,3.,5.96341724005459));
#1199=CARTESIAN_POINT('',(-8.,3.,-4.01829137997271));
#1200=CARTESIAN_POINT('Origin',(12.3435342130859,-2.,-9.28843658863081));
#1201=CARTESIAN_POINT('',(11.8345471185085,-2.,-24.0012062257353));
#1202=CARTESIAN_POINT('',(12.7524594285621,-2.,-23.9047297543462));
#1203=CARTESIAN_POINT('',(14.7186606150966,-2.,-23.698073682257));
#1204=CARTESIAN_POINT('',(12.6892750507125,-2.,-23.3035705556719));
#1205=CARTESIAN_POINT('Origin',(14.6870684261718,-2.,-23.3974940829198));
#1206=CARTESIAN_POINT('',(12.6664324465105,-2.,-23.305971410118));
#1207=CARTESIAN_POINT('',(12.6664324465105,-2.,-23.305971410118));
#1208=CARTESIAN_POINT('',(9.50000000000001,-2.,6.82062090565821));
#1209=CARTESIAN_POINT('',(9.50000000000001,-2.,6.82062090565821));
#1210=CARTESIAN_POINT('',(8.00000000000001,-2.,6.82062090565821));
#1211=CARTESIAN_POINT('',(8.00000000000001,-2.,6.82062090565821));
#1212=CARTESIAN_POINT('',(8.,-2.,5.92062090563803));
#1213=CARTESIAN_POINT('',(8.,-2.,2.35578170568459));
#1214=CARTESIAN_POINT('',(8.68963636011379,-2.,5.92062090563803));
#1215=CARTESIAN_POINT('',(8.68963636011379,-2.,5.92062090563803));
#1216=CARTESIAN_POINT('',(11.8345471185085,-2.,-24.0012062257353));
#1217=CARTESIAN_POINT('Origin',(14.6870684261718,0.,-23.3974940829198));
#1218=CARTESIAN_POINT('',(12.7524594285621,2.,-23.9047297543462));
#1219=CARTESIAN_POINT('',(12.7524594285621,0.,-23.9047297543462));
#1220=CARTESIAN_POINT('',(12.6892750507125,2.,-23.3035705556719));
#1221=CARTESIAN_POINT('Origin',(14.6870684261718,2.,-23.3974940829198));
#1222=CARTESIAN_POINT('',(12.6892750507125,0.,-23.3035705556719));
#1223=CARTESIAN_POINT('Origin',(12.6664324465105,0.,-23.305971410118));
#1224=CARTESIAN_POINT('',(12.6664324465105,2.,-23.305971410118));
#1225=CARTESIAN_POINT('',(12.6664324465105,2.,-23.305971410118));
#1226=CARTESIAN_POINT('',(12.6664324465105,0.,-23.305971410118));
#1227=CARTESIAN_POINT('Origin',(9.50000000000001,0.,6.82062090565821));
#1228=CARTESIAN_POINT('',(9.50000000000001,2.,6.82062090565821));
#1229=CARTESIAN_POINT('',(9.50000000000001,2.,6.82062090565821));
#1230=CARTESIAN_POINT('',(9.50000000000001,0.,6.82062090565821));
#1231=CARTESIAN_POINT('Origin',(8.00000000000001,0.,6.82062090565821));
#1232=CARTESIAN_POINT('',(8.00000000000001,2.,6.82062090565821));
#1233=CARTESIAN_POINT('',(8.00000000000001,2.,6.82062090565821));
#1234=CARTESIAN_POINT('',(8.,0.,6.82062090565821));
#1235=CARTESIAN_POINT('Origin',(8.68963636011379,0.,5.92062090563803));
#1236=CARTESIAN_POINT('',(8.,2.,5.92062090563803));
#1237=CARTESIAN_POINT('',(8.,0.,5.92062090563803));
#1238=CARTESIAN_POINT('',(8.68963636011379,2.,5.92062090563803));
#1239=CARTESIAN_POINT('',(8.68963636011379,2.,5.92062090563803));
#1240=CARTESIAN_POINT('',(8.68963636011379,0.,5.92062090563803));
#1241=CARTESIAN_POINT('Origin',(11.8345471185085,0.,-24.0012062257353));
#1242=CARTESIAN_POINT('',(11.8345471185085,2.,-24.0012062257353));
#1243=CARTESIAN_POINT('',(11.8345471185085,2.,-24.0012062257353));
#1244=CARTESIAN_POINT('',(11.8345471185085,0.,-24.0012062257353));
#1245=CARTESIAN_POINT('Origin',(12.7524594285621,0.,-23.9047297543462));
#1246=CARTESIAN_POINT('',(14.7186606150966,2.,-23.698073682257));
#1247=CARTESIAN_POINT('Origin',(12.3435342130859,2.,-9.28843658863081));
#1248=CARTESIAN_POINT('',(8.,2.,2.35578170568459));
#1249=CARTESIAN_POINT('Origin',(-2.575,-2.,22.));
#1250=CARTESIAN_POINT('',(-1.9,-3.,21.));
#1251=CARTESIAN_POINT('',(-1.9,-1.,23.));
#1252=CARTESIAN_POINT('',(-1.9,-4.25,19.75));
#1253=CARTESIAN_POINT('',(-2.8,-1.,23.));
#1254=CARTESIAN_POINT('',(-2.575,-1.,23.));
#1255=CARTESIAN_POINT('',(-2.8,-3.,21.));
#1256=CARTESIAN_POINT('',(-2.8,-2.75,21.25));
#1257=CARTESIAN_POINT('',(-2.575,-3.,21.));
#1258=CARTESIAN_POINT('Origin',(-2.35,0.,23.));
#1259=CARTESIAN_POINT('',(-1.9,1.,23.));
#1260=CARTESIAN_POINT('',(-1.9,-5.,23.));
#1261=CARTESIAN_POINT('',(-2.8,1.,23.));
#1262=CARTESIAN_POINT('',(-2.125,1.,23.));
#1263=CARTESIAN_POINT('',(-2.8,5.,23.));
#1264=CARTESIAN_POINT('Origin',(-1.9,-3.,14.));
#1265=CARTESIAN_POINT('',(-1.9,-3.,14.));
#1266=CARTESIAN_POINT('',(-1.9,-3.,14.));
#1267=CARTESIAN_POINT('',(-1.9,3.,14.));
#1268=CARTESIAN_POINT('',(-1.9,-1.5,14.));
#1269=CARTESIAN_POINT('',(-1.9,3.,21.));
#1270=CARTESIAN_POINT('',(-1.9,3.,14.));
#1271=CARTESIAN_POINT('',(-1.9,2.75,21.25));
#1272=CARTESIAN_POINT('',(-1.9,7.73754645177929E-17,19.095940826218));
#1273=CARTESIAN_POINT('Origin',(-1.9,1.99840144432528E-16,20.095940826218));
#1274=CARTESIAN_POINT('Origin',(2.125,-2.,22.));
#1275=CARTESIAN_POINT('',(2.8,-3.,21.));
#1276=CARTESIAN_POINT('',(2.8,-1.,23.));
#1277=CARTESIAN_POINT('',(2.8,-4.25,19.75));
#1278=CARTESIAN_POINT('',(1.9,-1.,23.));
#1279=CARTESIAN_POINT('',(2.125,-1.,23.));
#1280=CARTESIAN_POINT('',(1.9,-3.,21.));
#1281=CARTESIAN_POINT('',(1.9,-2.75,21.25));
#1282=CARTESIAN_POINT('',(2.125,-3.,21.));
#1283=CARTESIAN_POINT('Origin',(2.35,0.,23.));
#1284=CARTESIAN_POINT('',(2.8,1.,23.));
#1285=CARTESIAN_POINT('',(2.8,-5.,23.));
#1286=CARTESIAN_POINT('',(1.9,1.,23.));
#1287=CARTESIAN_POINT('',(2.575,1.,23.));
#1288=CARTESIAN_POINT('',(1.9,5.,23.));
#1289=CARTESIAN_POINT('Origin',(2.8,-3.,14.));
#1290=CARTESIAN_POINT('',(2.8,-3.,14.));
#1291=CARTESIAN_POINT('',(2.8,-3.,14.));
#1292=CARTESIAN_POINT('',(2.8,3.,14.));
#1293=CARTESIAN_POINT('',(2.8,-1.5,14.));
#1294=CARTESIAN_POINT('',(2.8,3.,21.));
#1295=CARTESIAN_POINT('',(2.8,3.,14.));
#1296=CARTESIAN_POINT('',(2.8,2.75,21.25));
#1297=CARTESIAN_POINT('',(2.8,1.12098510766544E-15,19.095940826218));
#1298=CARTESIAN_POINT('Origin',(2.8,1.24344978758018E-15,20.095940826218));
#1299=CARTESIAN_POINT('Origin',(2.575,2.,22.));
#1300=CARTESIAN_POINT('',(1.9,3.,21.));
#1301=CARTESIAN_POINT('',(1.9,4.25,19.75));
#1302=CARTESIAN_POINT('',(2.575,3.,21.));
#1303=CARTESIAN_POINT('Origin',(1.9,3.,14.));
#1304=CARTESIAN_POINT('',(1.9,3.,14.));
#1305=CARTESIAN_POINT('',(1.9,3.,14.));
#1306=CARTESIAN_POINT('',(1.9,-3.,14.));
#1307=CARTESIAN_POINT('',(1.9,1.5,14.));
#1308=CARTESIAN_POINT('',(1.9,-3.,14.));
#1309=CARTESIAN_POINT('',(1.9,1.16607432306238E-15,19.095940826218));
#1310=CARTESIAN_POINT('Origin',(1.9,1.04360964314765E-15,20.095940826218));
#1311=CARTESIAN_POINT('Origin',(2.8,3.,14.));
#1312=CARTESIAN_POINT('',(-2.6,3.,14.));
#1313=CARTESIAN_POINT('Origin',(-2.125,2.,22.));
#1314=CARTESIAN_POINT('',(-2.8,3.,21.));
#1315=CARTESIAN_POINT('',(-2.8,4.25,19.75));
#1316=CARTESIAN_POINT('',(-2.125,3.,21.));
#1317=CARTESIAN_POINT('Origin',(-2.8,3.,14.));
#1318=CARTESIAN_POINT('',(-2.8,3.,14.));
#1319=CARTESIAN_POINT('',(-2.8,3.,14.));
#1320=CARTESIAN_POINT('',(-2.8,-3.,14.));
#1321=CARTESIAN_POINT('',(-2.8,1.5,14.));
#1322=CARTESIAN_POINT('',(-2.8,-3.,14.));
#1323=CARTESIAN_POINT('',(-2.8,1.22464679914735E-16,19.095940826218));
#1324=CARTESIAN_POINT('Origin',(-2.8,2.46519032881566E-32,20.095940826218));
#1325=CARTESIAN_POINT('Origin',(-1.9,3.,14.));
#1326=CARTESIAN_POINT('',(-4.95,3.,14.));
#1327=CARTESIAN_POINT('Origin',(-2.8,0.,20.095940826218));
#1328=CARTESIAN_POINT('',(-2.8,1.22464679914735E-16,19.095940826218));
#1329=CARTESIAN_POINT('Origin',(-2.8,0.,20.095940826218));
#1330=CARTESIAN_POINT('',(-2.8,1.22464679914735E-16,19.095940826218));
#1331=CARTESIAN_POINT('Origin',(-2.8,-3.,14.));
#1332=CARTESIAN_POINT('',(-5.4,-3.,14.));
#1333=CARTESIAN_POINT('Origin',(1.9,-3.,14.));
#1334=CARTESIAN_POINT('',(-3.05,-3.,14.));
#1335=CARTESIAN_POINT('Origin',(5.,5.,11.));
#1336=CARTESIAN_POINT('',(3.5,5.,11.));
#1337=CARTESIAN_POINT('Origin',(5.,5.,11.));
#1338=CARTESIAN_POINT('',(3.5,-5.,11.));
#1339=CARTESIAN_POINT('',(3.5,5.,11.));
#1340=CARTESIAN_POINT('Origin',(5.,-5.,11.));
#1341=CARTESIAN_POINT('Origin',(-5.,5.,-11.));
#1342=CARTESIAN_POINT('',(-6.5,5.,-11.));
#1343=CARTESIAN_POINT('Origin',(-5.,5.,-11.));
#1344=CARTESIAN_POINT('',(-6.5,-5.,-11.));
#1345=CARTESIAN_POINT('',(-6.5,5.,-11.));
#1346=CARTESIAN_POINT('Origin',(-5.,-5.,-11.));
#1347=CARTESIAN_POINT('Origin',(-6.,0.,-12.));
#1348=CARTESIAN_POINT('',(-8.,5.,-12.));
#1349=CARTESIAN_POINT('',(-6.,5.,-14.));
#1350=CARTESIAN_POINT('Origin',(-6.,5.,-12.));
#1351=CARTESIAN_POINT('',(-6.,-5.,-14.));
#1352=CARTESIAN_POINT('',(-6.,0.,-14.));
#1353=CARTESIAN_POINT('',(-8.,-5.,-12.));
#1354=CARTESIAN_POINT('Origin',(-6.,-5.,-12.));
#1355=CARTESIAN_POINT('',(-8.,0.,-12.));
#1356=CARTESIAN_POINT('Origin',(-8.,0.,-14.));
#1357=CARTESIAN_POINT('',(-8.,-5.,12.));
#1358=CARTESIAN_POINT('',(-8.,-5.,-14.));
#1359=CARTESIAN_POINT('',(-8.,5.,12.));
#1360=CARTESIAN_POINT('',(-8.,0.,12.));
#1361=CARTESIAN_POINT('',(-8.,5.,-14.));
#1362=CARTESIAN_POINT('Origin',(0.,-5.,0.));
#1363=CARTESIAN_POINT('',(6.,-5.,-14.));
#1364=CARTESIAN_POINT('',(8.,-5.,-14.));
#1365=CARTESIAN_POINT('',(8.,-5.,-12.));
#1366=CARTESIAN_POINT('Origin',(6.,-5.,-12.));
#1367=CARTESIAN_POINT('',(8.,-5.,12.));
#1368=CARTESIAN_POINT('',(8.,-5.,14.));
#1369=CARTESIAN_POINT('',(6.,-5.,14.));
#1370=CARTESIAN_POINT('Origin',(6.,-5.,12.));
#1371=CARTESIAN_POINT('',(-6.,-5.,14.));
#1372=CARTESIAN_POINT('',(-8.,-5.,14.));
#1373=CARTESIAN_POINT('Origin',(-6.,-5.,12.));
#1374=CARTESIAN_POINT('Origin',(-6.,0.,12.));
#1375=CARTESIAN_POINT('',(-6.,5.,14.));
#1376=CARTESIAN_POINT('Origin',(-6.,5.,12.));
#1377=CARTESIAN_POINT('',(-6.,0.,14.));
#1378=CARTESIAN_POINT('Origin',(-8.,0.,14.));
#1379=CARTESIAN_POINT('',(6.,5.,14.));
#1380=CARTESIAN_POINT('',(6.,0.,14.));
#1381=CARTESIAN_POINT('',(-8.,5.,14.));
#1382=CARTESIAN_POINT('Origin',(6.,0.,-12.));
#1383=CARTESIAN_POINT('',(6.,5.,-14.));
#1384=CARTESIAN_POINT('',(6.,0.,-14.));
#1385=CARTESIAN_POINT('',(8.,5.,-12.));
#1386=CARTESIAN_POINT('Origin',(6.,5.,-12.));
#1387=CARTESIAN_POINT('',(8.,0.,-12.));
#1388=CARTESIAN_POINT('Origin',(8.,0.,14.));
#1389=CARTESIAN_POINT('',(8.,5.,12.));
#1390=CARTESIAN_POINT('',(8.,5.,14.));
#1391=CARTESIAN_POINT('',(8.,0.,12.));
#1392=CARTESIAN_POINT('Origin',(6.,0.,12.));
#1393=CARTESIAN_POINT('Origin',(6.,5.,12.));
#1394=CARTESIAN_POINT('Origin',(8.,0.,-14.));
#1395=CARTESIAN_POINT('',(8.,5.,-14.));
#1396=CARTESIAN_POINT('Origin',(0.,5.,0.));
#1397=UNCERTAINTY_MEASURE_WITH_UNIT(LENGTH_MEASURE(0.01),#1401,
'DISTANCE_ACCURACY_VALUE',
'Maximum model space distance between geometric entities at asserted c
onnectivities');
#1398=UNCERTAINTY_MEASURE_WITH_UNIT(LENGTH_MEASURE(0.01),#1401,
'DISTANCE_ACCURACY_VALUE',
'Maximum model space distance between geometric entities at asserted c
onnectivities');
#1399=(
GEOMETRIC_REPRESENTATION_CONTEXT(3)
GLOBAL_UNCERTAINTY_ASSIGNED_CONTEXT((#1397))
GLOBAL_UNIT_ASSIGNED_CONTEXT((#1401,#1403,#1404))
REPRESENTATION_CONTEXT('','3D')
);
#1400=(
GEOMETRIC_REPRESENTATION_CONTEXT(3)
GLOBAL_UNCERTAINTY_ASSIGNED_CONTEXT((#1398))
GLOBAL_UNIT_ASSIGNED_CONTEXT((#1401,#1403,#1404))
REPRESENTATION_CONTEXT('','3D')
);
#1401=(
LENGTH_UNIT()
NAMED_UNIT(*)
SI_UNIT(.MILLI.,.METRE.)
);
#1402=(
LENGTH_UNIT()
NAMED_UNIT(*)
SI_UNIT(.CENTI.,.METRE.)
);
#1403=(
NAMED_UNIT(*)
PLANE_ANGLE_UNIT()
SI_UNIT($,.RADIAN.)
);
#1404=(
NAMED_UNIT(*)
SI_UNIT($,.STERADIAN.)
SOLID_ANGLE_UNIT()
);
#1405=SHAPE_DEFINITION_REPRESENTATION(#1406,#1407);
#1406=PRODUCT_DEFINITION_SHAPE('',$,#1409);
#1407=SHAPE_REPRESENTATION('',(#877),#1399);
#1408=PRODUCT_DEFINITION_CONTEXT('part definition',#1413,'design');
#1409=PRODUCT_DEFINITION('FIN_DE_CARRERA','FIN_DE_CARRERA',#1410,#1408);
#1410=PRODUCT_DEFINITION_FORMATION('',$,#1415);
#1411=PRODUCT_RELATED_PRODUCT_CATEGORY('FIN_DE_CARRERA',
'FIN_DE_CARRERA',(#1415));
#1412=APPLICATION_PROTOCOL_DEFINITION('international standard',
'automotive_design',2009,#1413);
#1413=APPLICATION_CONTEXT(
'Core Data for Automotive Mechanical Design Process');
#1414=PRODUCT_CONTEXT('part definition',#1413,'mechanical');
#1415=PRODUCT('FIN_DE_CARRERA','FIN_DE_CARRERA',$,(#1414));
#1416=PRESENTATION_STYLE_ASSIGNMENT((#1418));
#1417=PRESENTATION_STYLE_ASSIGNMENT((#1419));
#1418=SURFACE_STYLE_USAGE(.BOTH.,#1424);
#1419=SURFACE_STYLE_USAGE(.BOTH.,#1425);
#1420=SURFACE_STYLE_RENDERING_WITH_PROPERTIES($,#1432,(#1422));
#1421=SURFACE_STYLE_RENDERING_WITH_PROPERTIES($,#1433,(#1423));
#1422=SURFACE_STYLE_TRANSPARENT(0.);
#1423=SURFACE_STYLE_TRANSPARENT(0.);
#1424=SURFACE_SIDE_STYLE('',(#1426,#1420));
#1425=SURFACE_SIDE_STYLE('',(#1427,#1421));
#1426=SURFACE_STYLE_FILL_AREA(#1428);
#1427=SURFACE_STYLE_FILL_AREA(#1429);
#1428=FILL_AREA_STYLE('',(#1430));
#1429=FILL_AREA_STYLE('',(#1431));
#1430=FILL_AREA_STYLE_COLOUR('',#1432);
#1431=FILL_AREA_STYLE_COLOUR('',#1433);
#1432=COLOUR_RGB('',0.690196078431373,0.67843137254902,0.67843137254902);
#1433=COLOUR_RGB('',0.184313725490196,0.623529411764706,0.764705882352941);
ENDSEC;
END-ISO-10303-21;
